D:\school\WTK\thesis\model\3dpredictsim\Results\batch_windlass\Pog_s1_tmt_aCst_d05_k800_WL10_ig24_pas_GRF.mot
nRows=27
nColumns=19

name D:\school\WTK\thesis\model\3dpredictsim\Results\batch_windlass\Pog_s1_tmt_aCst_d05_k800_WL10_ig24_pas_GRF.mot
datacolumns 19
datarows 27
range 0.0000000000 0.2743897267
endheader
time 	ground_force_vx	ground_force_vy	ground_force_vz	ground_force_px	ground_force_py	ground_force_pz	1_ground_force_vx	1_ground_force_vy	1_ground_force_vz	1_ground_force_px	1_ground_force_py	1_ground_force_pz	ground_torque_x	ground_torque_y	ground_torque_z	1_ground_torque_x	1_ground_torque_y	1_ground_torque_z
        0.0000000000	     -149.6754302928	      129.2274480470	       35.5571500266	        0.1242663203	        0.0000000000	        0.0428936726	       96.5586576472	      415.2591350355	       -1.5841545309	       -0.3423275247	        0.0000000000	       -0.0377506349	        0.0000000000	        0.0000000000	        0.0000000000	        0.0000000000	        0.0000000000	        0.0000000000	
        0.0105534510	     -128.0641046118	      264.8577965666	       40.6976009436	        0.1400288946	        0.0000000000	        0.0441262000	       68.4709937794	      322.1299445473	       -9.1317749240	       -0.3361147836	        0.0000000000	       -0.0353996358	        0.0000000000	        0.0000000000	        0.0000000000	        0.0000000000	        0.0000000000	        0.0000000000	
        0.0211069021	      -73.9494458186	      497.9859399817	        7.2889420701	        0.1502827166	        0.0000000000	        0.0442488740	       35.4673523933	      220.6607213108	       -9.5224061720	       -0.3248399213	        0.0000000000	       -0.0301883561	        0.0000000000	        0.0000000000	        0.0000000000	        0.0000000000	        0.0000000000	        0.0000000000	
        0.0316603531	      -95.7260556811	      715.1350115114	       -8.0237128101	        0.1604812216	        0.0000000000	        0.0438971520	       14.3340688411	      154.7703520560	      -11.9731778234	       -0.3124263964	        0.0000000000	       -0.0236158774	        0.0000000000	        0.0000000000	        0.0000000000	        0.0000000000	        0.0000000000	        0.0000000000	
        0.0422138041	     -117.4139216934	      860.1263142059	      -10.9714514996	        0.1704662515	        0.0000000000	        0.0429667854	        6.8062752028	      126.1278039411	      -15.6279327778	       -0.3127990981	        0.0000000000	       -0.0241189076	        0.0000000000	        0.0000000000	        0.0000000000	        0.0000000000	        0.0000000000	        0.0000000000	
        0.0527672551	     -119.9202967534	      885.1388513032	       -8.7917198052	        0.1758586986	        0.0000000000	        0.0423024720	        3.1865194955	       89.4059892531	      -16.4511172767	       -0.3123755765	        0.0000000000	       -0.0242988503	        0.0000000000	        0.0000000000	        0.0000000000	        0.0000000000	        0.0000000000	        0.0000000000	
        0.0633207062	     -109.5778545190	      857.1479622568	       -8.4048261180	        0.1793056814	        0.0000000000	        0.0417824203	       -5.2848965940	       49.3830738793	      -12.0524044954	       -0.3126000203	        0.0000000000	       -0.0242034625	        0.0000000000	        0.0000000000	        0.0000000000	        0.0000000000	        0.0000000000	        0.0000000000	
        0.0738741572	      -97.9450200309	      821.1732035068	       -7.8032734472	        0.1823339127	        0.0000000000	        0.0414056223	       -3.7696103206	        7.0503124314	       -2.0861818118	        0.0000000000	        0.0000000000	        0.0000000000	        0.0000000000	        0.0000000000	        0.0000000000	        0.0000000000	        0.0000000000	        0.0000000000	
        0.0844276082	      -85.8194544172	      787.2216740648	      -10.0666611892	        0.1851167448	        0.0000000000	        0.0411052178	        0.0018851295	       -0.0017896791	        0.0001274366	        0.0000000000	        0.0000000000	        0.0000000000	        0.0000000000	        0.0000000000	        0.0000000000	        0.0000000000	        0.0000000000	        0.0000000000	
        0.0949810592	      -73.3327720240	      753.9080939971	      -11.7619439486	        0.1879441587	        0.0000000000	        0.0409159689	        0.0000187140	       -0.0000147840	       -0.0000002295	        0.0000000000	        0.0000000000	        0.0000000000	        0.0000000000	        0.0000000000	        0.0000000000	        0.0000000000	        0.0000000000	        0.0000000000	
        0.1055345103	      -61.1994628436	      721.4963936234	      -12.6863496174	        0.1910736909	        0.0000000000	        0.0408245668	        0.0000124158	       -0.0000085303	       -0.0000005063	        0.0000000000	        0.0000000000	        0.0000000000	        0.0000000000	        0.0000000000	        0.0000000000	        0.0000000000	        0.0000000000	        0.0000000000	
        0.1160879613	      -50.7607283158	      692.4958314892	      -14.2700701458	        0.1954181013	        0.0000000000	        0.0407657927	        0.0001978859	       -0.0001221970	       -0.0000110650	        0.0000000000	        0.0000000000	        0.0000000000	        0.0000000000	        0.0000000000	        0.0000000000	        0.0000000000	        0.0000000000	        0.0000000000	
        0.1266414123	      -43.3325746114	      668.1527053891	      -15.9171724250	        0.2007877712	        0.0000000000	        0.0407160926	        0.0036457174	       -0.0020713865	       -0.0002426137	        0.0000000000	        0.0000000000	        0.0000000000	        0.0000000000	        0.0000000000	        0.0000000000	        0.0000000000	        0.0000000000	        0.0000000000	
        0.1371948633	      -37.6784519715	      647.7935699655	      -17.0941683499	        0.2065411588	        0.0000000000	        0.0406798871	       -0.0175167867	        0.0093081162	        0.0013060729	        0.0000000000	        0.0000000000	        0.0000000000	        0.0000000000	        0.0000000000	        0.0000000000	        0.0000000000	        0.0000000000	        0.0000000000	
        0.1477483144	      -32.8576344783	      631.2410040330	      -17.9033495408	        0.2125537588	        0.0000000000	        0.0406468801	       -0.0127104976	        0.0063860109	        0.0010278775	        0.0000000000	        0.0000000000	        0.0000000000	        0.0000000000	        0.0000000000	        0.0000000000	        0.0000000000	        0.0000000000	        0.0000000000	
        0.1583017654	      -29.1065222764	      618.0531846752	      -18.2498502160	        0.2186748635	        0.0000000000	        0.0406144087	       -0.0087794000	        0.0042034397	        0.0007511321	        0.0000000000	        0.0000000000	        0.0000000000	        0.0000000000	        0.0000000000	        0.0000000000	        0.0000000000	        0.0000000000	        0.0000000000	
        0.1688552164	      -26.1343690584	      607.4225449838	      -18.2390807767	        0.2246389313	        0.0000000000	        0.0405873300	       -0.0075400741	        0.0034624594	        0.0006675350	        0.0000000000	        0.0000000000	        0.0000000000	        0.0000000000	        0.0000000000	        0.0000000000	        0.0000000000	        0.0000000000	        0.0000000000	
        0.1794086674	      -23.4697464064	      599.1627092421	      -17.9671200352	        0.2304741916	        0.0000000000	        0.0405599354	       -0.0084173920	        0.0037274140	        0.0007572609	        0.0000000000	        0.0000000000	        0.0000000000	        0.0000000000	        0.0000000000	        0.0000000000	        0.0000000000	        0.0000000000	        0.0000000000	
        0.1899621185	      -21.2514978891	      592.8512179837	      -17.6799294045	        0.2361575905	        0.0000000000	        0.0405257422	       -0.0119538079	        0.0051267206	        0.0010797784	        0.0000000000	        0.0000000000	        0.0000000000	        0.0000000000	        0.0000000000	        0.0000000000	        0.0000000000	        0.0000000000	        0.0000000000	
        0.2005155695	      -19.8482817823	      587.8417339691	      -17.3416920348	        0.2415746055	        0.0000000000	        0.0404905674	       -0.0204476667	        0.0085255021	        0.0018415795	        0.0000000000	        0.0000000000	        0.0000000000	        0.0000000000	        0.0000000000	        0.0000000000	        0.0000000000	        0.0000000000	        0.0000000000	
        0.2110690205	      -18.5330380164	      582.9954052393	      -16.8993191339	        0.2466173984	        0.0000000000	        0.0404672703	       -0.0392798207	        0.0159784353	        0.0035121961	        0.0000000000	        0.0000000000	        0.0000000000	        0.0000000000	        0.0000000000	        0.0000000000	        0.0000000000	        0.0000000000	        0.0000000000	
        0.2216224715	      -16.8614919141	      578.1477354991	      -16.7830754220	        0.2514558341	        0.0000000000	        0.0404406874	       -0.0788144077	        0.0313892572	        0.0069777675	        0.0000000000	        0.0000000000	        0.0000000000	        0.0000000000	        0.0000000000	        0.0000000000	        0.0000000000	        0.0000000000	        0.0000000000	
        0.2321759226	      -14.6943842207	      572.9877024900	      -16.8412550336	        0.2561584721	        0.0000000000	        0.0404049653	       -0.1551649270	        0.0607071988	        0.0135779470	        0.0000000000	        0.0000000000	        0.0000000000	        0.0000000000	        0.0000000000	        0.0000000000	        0.0000000000	        0.0000000000	        0.0000000000	
        0.2427293736	      -12.2714433176	      567.4939549692	      -16.9008231129	        0.2607818525	        0.0000000000	        0.0403534374	       -0.2861641624	        0.1103351849	        0.0247258260	        0.0000000000	        0.0000000000	        0.0000000000	        0.0000000000	        0.0000000000	        0.0000000000	        0.0000000000	        0.0000000000	        0.0000000000	
        0.2532828246	       -9.7016078930	      561.6708955642	      -16.9391625068	        0.2653187381	        0.0000000000	        0.0402837351	       -0.4773831219	        0.1819554276	        0.0405939771	        0.0000000000	        0.0000000000	        0.0000000000	        0.0000000000	        0.0000000000	        0.0000000000	        0.0000000000	        0.0000000000	        0.0000000000	
        0.2638362756	       -6.8982819560	      555.4808141534	      -16.7566176505	        0.2697582593	        0.0000000000	        0.0401968518	       -0.7104059121	        0.2684268600	        0.0590503339	        0.0000000000	        0.0000000000	        0.0000000000	        0.0000000000	        0.0000000000	        0.0000000000	        0.0000000000	        0.0000000000	        0.0000000000	
        0.2743897267	       -3.7976959232	      548.9959271492	      -16.0812186877	        0.2740804630	        0.0000000000	        0.0400956912	       -0.9477170757	        0.3558062767	        0.0761741842	        0.0000000000	        0.0000000000	        0.0000000000	        0.0000000000	        0.0000000000	        0.0000000000	        0.0000000000	        0.0000000000	        0.0000000000	
